<svg width="16" height="18" viewBox="0 0 16 18" fill="none" xmlns="http://www.w3.org/2000/svg">
    <path fill-rule="evenodd" clip-rule="evenodd"
        d="M8 0.9375C12.0154 0.9375 15.3125 3.7745 15.3125 8.25C15.3125 10.5136 14.0927 12.7055 12.6347 14.307C11.9 15.114 11.0859 15.7928 10.2966 16.2738C9.521 16.7463 8.71243 17.0625 8 17.0625C7.28758 17.0625 6.479 16.7463 5.70341 16.2738C4.91408 15.7928 4.10001 15.114 3.36529 14.307C1.90734 12.7055 0.6875 10.5136 0.6875 8.25C0.6875 3.7745 3.98463 0.9375 8 0.9375ZM8.75 12.75H7.25C6.83577 12.75 6.5 13.0858 6.5 13.5C6.5 13.9142 6.83577 14.25 7.25 14.25H8.75C9.16422 14.25 9.5 13.9142 9.5 13.5C9.5 13.0858 9.16422 12.75 8.75 12.75ZM4.5 6.9375H3.875C3.35723 6.9375 2.9375 7.35723 2.9375 7.875V8.49997C2.9375 9.91523 4.08477 11.0625 5.5 11.0625H6.125C6.6428 11.0625 7.0625 10.6428 7.0625 10.125V9.50002C7.0625 8.08478 5.91523 6.9375 4.5 6.9375ZM11.6893 6.93789L11.5006 6.9375C10.0854 6.9375 8.9375 8.08478 8.9375 9.50002C8.93742 9.65385 8.93795 10.096 8.95685 10.2365C8.97897 10.4009 9.03583 10.6111 9.21268 10.7879C9.38953 10.9648 9.59967 11.0216 9.76415 11.0438C9.90455 11.0627 10.3468 11.0626 10.5006 11.0625C11.9158 11.0625 13.0631 9.91523 13.0631 8.49997L13.0627 8.31128C13.0617 8.11813 13.0578 7.86389 13.0443 7.76355C13.0222 7.59908 12.9654 7.38895 12.7885 7.2121C12.6117 7.03525 12.4015 6.97837 12.237 6.95625C12.1367 6.94277 11.8825 6.93895 11.6893 6.93789Z"
        fill="#FAB55A" />
</svg>