<svg xmlns="http://www.w3.org/2000/svg" width="14" height="14" viewBox="0 0 14 14" fill="none">
    <path fill-rule="evenodd" clip-rule="evenodd"
        d="M7.00033 0.729187C6.67308 0.729187 6.4065 0.866856 6.16383 1.05236C5.93633 1.22561 5.6855 1.47643 5.39209 1.76984L5.37166 1.79027C5.07125 2.09068 4.80933 2.20851 4.40566 2.20851C4.35491 2.20851 4.29132 2.20676 4.21898 2.20501C4.03407 2.19976 3.79491 2.19276 3.58549 2.21085C3.27924 2.23768 2.89657 2.32111 2.60607 2.61394C2.3179 2.90502 2.23625 3.28594 2.21058 3.58986C2.19308 3.79752 2.20006 4.03496 2.20531 4.2187C2.20706 4.29104 2.20882 4.35458 2.20882 4.40533C2.20882 4.80899 2.09099 5.07094 1.79057 5.37136L1.77015 5.39175C1.47673 5.68517 1.22591 5.93603 1.05266 6.16353C0.867161 6.4062 0.729492 6.67277 0.729492 7.00002C0.729492 7.32727 0.867161 7.59384 1.05266 7.83651C1.22591 8.06401 1.47673 8.31487 1.77015 8.60829L1.79057 8.62868C1.98541 8.82351 2.07701 8.94952 2.12892 9.06852C2.17967 9.1846 2.20882 9.33163 2.20882 9.59471C2.20882 9.64546 2.20706 9.709 2.20531 9.78133C2.20006 9.96625 2.19307 10.2054 2.21115 10.4149C2.23799 10.7211 2.32141 11.1038 2.61425 11.3943C2.90533 11.6824 3.28624 11.7641 3.59016 11.7898C3.79783 11.8073 4.03523 11.8003 4.21898 11.795C4.29132 11.7933 4.35491 11.7915 4.40566 11.7915C4.66291 11.7915 4.80757 11.8172 4.92132 11.8644C5.03507 11.9111 5.15699 11.9951 5.34016 12.1782C5.37924 12.2173 5.43117 12.2728 5.49067 12.337C5.62483 12.4804 5.79925 12.6671 5.962 12.81C6.20934 13.0258 6.56399 13.2709 7.00033 13.2709C7.43666 13.2709 7.79131 13.0258 8.03865 12.81C8.2014 12.6671 8.37582 12.4804 8.50998 12.337C8.56948 12.2728 8.62141 12.2173 8.66049 12.1782C8.84366 11.9951 8.96558 11.9111 9.07933 11.8644C9.19308 11.8172 9.33774 11.7915 9.59499 11.7915C9.64574 11.7915 9.70934 11.7933 9.78167 11.795C9.96542 11.8003 10.2028 11.8073 10.4105 11.7898C10.7144 11.7641 11.0953 11.6824 11.3864 11.3943C11.6792 11.1038 11.7627 10.7211 11.7895 10.4149C11.8076 10.2054 11.8006 9.96625 11.7953 9.78133C11.7936 9.709 11.7918 9.64488 11.7918 9.59471C11.7918 9.33163 11.821 9.1846 11.8717 9.06852C11.9236 8.94952 12.0152 8.82351 12.2101 8.62868L12.2305 8.60829C12.5239 8.31487 12.7747 8.06401 12.948 7.83651C13.1335 7.59384 13.2712 7.32727 13.2712 7.00002C13.2712 6.67277 13.1335 6.4062 12.948 6.16353C12.7747 5.93603 12.5239 5.68517 12.2305 5.39175L12.2101 5.37136C12.0152 5.17652 11.9236 5.05052 11.8717 4.93152C11.821 4.81544 11.7918 4.66841 11.7918 4.40533C11.7918 4.35458 11.7936 4.29102 11.7953 4.21927C11.8006 4.03377 11.8076 3.7946 11.7895 3.58518C11.7627 3.27893 11.6792 2.89627 11.3864 2.60577C11.0953 2.3176 10.7144 2.23594 10.4105 2.21028C10.2028 2.19278 9.96542 2.19976 9.78167 2.20501C9.70934 2.20676 9.64516 2.20851 9.59499 2.20851C9.19074 2.20851 8.9294 2.09068 8.62899 1.79027L8.60856 1.76984C8.31515 1.47643 8.06432 1.22561 7.83682 1.05236C7.59415 0.866856 7.32758 0.729187 7.00033 0.729187ZM9.19717 5.91675C9.40425 5.67 9.37217 5.30251 9.12542 5.09484C8.87867 4.88776 8.51115 4.91987 8.30348 5.16662L6.24025 7.623L5.63883 7.08575C5.3985 6.87109 5.02983 6.89208 4.81516 7.13241C4.60049 7.37274 4.62148 7.74142 4.86182 7.95608L5.91182 8.89352C6.02965 8.99852 6.18484 9.05159 6.34234 9.03992C6.49925 9.02884 6.64567 8.95417 6.74717 8.83342L9.19717 5.91675Z"
        fill="#3B8F38" />
</svg>